<?xml version="1.0" encoding="UTF-8"?><svg xmlns="http://www.w3.org/2000/svg" viewBox="0 0 430 62.05"><defs><style>.d{fill:#0d6efd;}</style></defs><g id="a"/><g id="b"><g id="c"><g><path d="M37.94,48.55H18.59l-3.91,12.65H0L19.69,5.18h17.48l19.61,56.02h-15.03l-3.82-12.65Zm-3.06-9.93l-4.08-13.41-2.46-8.83h-.17l-2.29,8.74-4.24,13.49h13.24Z"/><path class="d" d="M63.11,12.18c-1.33-1.1-1.99-2.84-1.99-5.22s.66-4.2,1.99-5.31c1.33-1.1,3.46-1.66,6.41-1.66s5.08,.55,6.41,1.66,1.99,2.87,1.99,5.31-.67,4.12-1.99,5.22c-1.33,1.11-3.46,1.66-6.41,1.66s-5.08-.55-6.41-1.66Zm13.62,49.02h-14.43V18.76h14.43V61.2Z"/><path d="M117.81,18.84l-1.53,12.22c-.57-.34-1.33-.64-2.29-.89-.96-.25-1.98-.38-3.06-.38-2.72,0-4.98,.86-6.79,2.59-1.81,1.73-2.72,4.2-2.72,7.43v21.39h-14.43V18.76h12.73l.59,9.17c1.02-3.23,2.62-5.7,4.8-7.43,2.18-1.73,4.88-2.59,8.1-2.59,1.92,0,3.45,.31,4.58,.93Z"/><path d="M165.94,9.97c3.73,3.2,5.6,7.8,5.6,13.79s-1.87,10.15-5.6,13.28c-3.74,3.14-9.08,4.71-16.04,4.71h-11.12v19.44h-14.6V5.18h25.72c6.96,0,12.31,1.6,16.04,4.79Zm-11.33,19.27c1.5-1.22,2.25-3.1,2.25-5.64s-.75-4.34-2.25-5.56c-1.5-1.22-3.84-1.83-7-1.83h-8.83v14.85h8.83c3.17,0,5.5-.61,7-1.82Z"/><path d="M215.38,23.72c3.93,3.88,5.9,9.29,5.9,16.26s-1.97,12.38-5.9,16.26c-3.93,3.88-9.44,5.81-16.51,5.81s-12.58-1.94-16.51-5.81c-3.93-3.88-5.9-9.29-5.9-16.26s1.96-12.38,5.9-16.26c3.93-3.87,9.43-5.81,16.51-5.81s12.57,1.94,16.51,5.81Zm-22.54,7.26c-1.3,1.87-1.95,4.87-1.95,9s.65,7.13,1.95,9c1.3,1.87,3.31,2.8,6.03,2.8s4.72-.93,6.03-2.8c1.3-1.87,1.95-4.87,1.95-9s-.65-7.13-1.95-9c-1.3-1.87-3.31-2.8-6.03-2.8s-4.73,.93-6.03,2.8Z"/><path d="M243.86,46.51c0,1.93,.28,3.28,.85,4.08,.57,.79,1.58,1.19,3.06,1.19,1.36,0,2.8-.25,4.33-.76l-.93,8.91c-1.02,.62-2.35,1.13-3.99,1.53s-3.25,.59-4.84,.59c-4.53,0-7.81-1.06-9.85-3.18-2.04-2.12-3.06-5.53-3.06-10.23V.76h14.43V46.51Z"/><path class="d" d="M258.16,12.18c-1.33-1.1-1.99-2.84-1.99-5.22s.66-4.2,1.99-5.31c1.33-1.1,3.46-1.66,6.41-1.66s5.08,.55,6.41,1.66,1.99,2.87,1.99,5.31-.67,4.12-1.99,5.22c-1.33,1.11-3.46,1.66-6.41,1.66s-5.08-.55-6.41-1.66Zm13.62,49.02h-14.43V18.76h14.43V61.2Z"/><path d="M312.87,58.82c-1.41,.96-3.21,1.74-5.39,2.33-2.18,.59-4.37,.89-6.58,.89-5.04,0-8.89-1.07-11.54-3.22-2.66-2.15-4.02-5.6-4.08-10.36V29.03h-7.3v-10.27h7.3V9.25l14.43-3.99v13.49h12.73v10.27h-12.73v17.06c0,3.79,1.87,5.69,5.6,5.69,2.32,0,4.36-.62,6.11-1.87l1.44,8.91Z"/><path class="d" d="M319.78,12.18c-1.33-1.1-1.99-2.84-1.99-5.22s.66-4.2,1.99-5.31c1.33-1.1,3.46-1.66,6.41-1.66s5.08,.55,6.41,1.66,1.99,2.87,1.99,5.31-.67,4.12-1.99,5.22c-1.33,1.11-3.46,1.66-6.41,1.66s-5.08-.55-6.41-1.66Zm13.62,49.02h-14.43V18.76h14.43V61.2Z"/><path d="M378.39,21.56c3.23,2.43,5.23,5.6,6.03,9.5l-13.41,4.42c-.57-4.87-2.75-7.3-6.54-7.3-5.6,0-8.4,3.99-8.4,11.97s2.8,11.63,8.4,11.63c4.02,0,6.37-2.29,7.05-6.87l12.99,4.16c-.62,3.85-2.67,6.97-6.15,9.38-3.48,2.4-8.08,3.61-13.79,3.61-7.36,0-13.02-1.92-16.98-5.77-3.96-3.85-5.94-9.28-5.94-16.3s1.96-12.38,5.9-16.26c3.93-3.87,9.41-5.81,16.42-5.81,6.39,0,11.2,1.22,14.43,3.65Z"/><path d="M389,54.58l7.47-8.15c2.43,4.02,6.62,6.03,12.56,6.03,1.98,0,3.54-.27,4.67-.81,1.13-.54,1.7-1.26,1.7-2.16,0-.79-.58-1.49-1.74-2.08s-3.15-1.17-5.98-1.74c-6.34-1.24-10.85-2.94-13.54-5.09-2.69-2.15-4.03-5.01-4.03-8.57,0-2.43,.76-4.72,2.29-6.87,1.53-2.15,3.83-3.89,6.92-5.22,3.08-1.33,6.83-1.99,11.25-1.99,4.87,0,8.84,.67,11.93,1.99s5.59,3.32,7.51,5.98l-7.47,7.3c-1.36-1.98-2.97-3.42-4.84-4.33-1.87-.91-4.1-1.36-6.71-1.36-2.04,0-3.62,.31-4.76,.93-1.13,.62-1.7,1.39-1.7,2.29,0,.85,.58,1.57,1.74,2.16,1.16,.59,3.18,1.17,6.07,1.74,6.23,1.07,10.71,2.67,13.45,4.79,2.75,2.12,4.12,5.02,4.12,8.7,0,4.13-1.73,7.49-5.18,10.06-3.45,2.58-8.46,3.86-15.02,3.86-9.73,0-16.64-2.49-20.71-7.47Z"/></g></g></g></svg>